<svg version="1.1" id="Layer_1" xmlns="http://www.w3.org/2000/svg" xmlns:xlink="http://www.w3.org/1999/xlink" x="0px" y="0px"
	 width="100%" viewBox="0 0 192 192" enable-background="new 0 0 192 192" xml:space="preserve">
<path fill="#10A37F" opacity="1.000000" stroke="none" 
	d="
M1.000002,163.000000 
	C1.000000,119.312439 1.000000,75.624878 1.362366,31.636580 
	C2.171244,30.691799 2.821105,30.108448 3.034132,29.394712 
	C6.992637,16.131969 15.680122,7.545487 28.697721,3.115923 
	C29.600605,2.808695 30.238747,1.723445 31.000000,1.000000 
	C74.687561,1.000000 118.375122,1.000000 162.363052,1.362052 
	C163.307343,2.171930 163.890274,2.825040 164.604218,3.037160 
	C177.880188,6.981547 186.439285,15.699332 190.893311,28.695852 
	C191.202682,29.598539 192.279877,30.238087 193.000000,31.000000 
	C193.000000,74.687561 193.000000,118.375122 192.637634,162.363419 
	C191.828766,163.308121 191.178543,163.891403 190.965942,164.605042 
	C187.013458,177.873169 178.317062,186.448944 165.301422,190.877579 
	C164.398132,191.184937 163.760925,192.274292 163.000000,193.000000 
	C119.312439,193.000000 75.624878,193.000000 31.638836,192.638474 
	C30.696257,191.829361 30.113091,191.177231 29.399033,190.964508 
	C16.130035,187.011719 7.553763,178.309891 3.106706,165.304214 
	C2.798059,164.401566 1.720168,163.761932 1.000002,163.000000 
M144.210876,79.434334 
	C143.978958,62.191319 131.618759,50.710464 114.655067,51.716286 
	C112.816513,51.825302 110.521477,50.929054 109.064148,49.735062 
	C95.004128,38.215763 74.865799,42.531708 66.732231,58.796589 
	C65.901436,60.457947 64.069206,62.096149 62.327908,62.750557 
	C45.215744,69.181625 38.761299,88.581024 48.638996,103.839622 
	C49.733002,105.529587 50.251816,108.098549 49.957809,110.101379 
	C47.260086,128.478821 60.900314,143.368301 79.476677,142.323074 
	C81.309555,142.219955 83.581917,143.146301 85.046761,144.337189 
	C99.011208,155.689941 118.939949,151.515686 127.132996,135.575775 
	C128.111206,133.672638 130.237289,131.851700 132.249908,131.068909 
	C147.445160,125.158806 154.814194,107.085800 146.892517,93.176224 
	C144.440872,88.871407 143.048111,85.019600 144.210876,79.434334 
z"/>
<path fill="#000000" opacity="1.000000" stroke="none" 
	d="
M163.468658,193.000000 
	C163.760925,192.274292 164.398132,191.184937 165.301422,190.877579 
	C178.317062,186.448944 187.013458,177.873169 190.965942,164.605042 
	C191.178543,163.891403 191.828766,163.308121 192.637634,162.832077 
	C193.000000,172.926498 193.000000,182.853012 193.000000,193.000000 
	C183.313553,193.000000 173.625427,193.000000 163.468658,193.000000 
z"/>
<path fill="#000000" opacity="1.000000" stroke="none" 
	d="
M1.000002,163.468658 
	C1.720168,163.761932 2.798059,164.401566 3.106706,165.304214 
	C7.553763,178.309891 16.130035,187.011719 29.399033,190.964508 
	C30.113091,191.177231 30.696257,191.829361 31.170177,192.638474 
	C21.073498,193.000000 11.146996,193.000000 1.000000,193.000000 
	C1.000000,183.313553 1.000000,173.625427 1.000002,163.468658 
z"/>
<path fill="#000000" opacity="1.000000" stroke="none" 
	d="
M30.531342,1.000000 
	C30.238747,1.723445 29.600605,2.808695 28.697721,3.115923 
	C15.680122,7.545487 6.992637,16.131969 3.034132,29.394712 
	C2.821105,30.108448 2.171244,30.691799 1.362366,31.167923 
	C1.000000,21.073496 1.000000,11.146992 1.000000,1.000000 
	C10.686449,1.000000 20.374567,1.000000 30.531342,1.000000 
z"/>
<path fill="#000000" opacity="1.000000" stroke="none" 
	d="
M193.000000,30.531342 
	C192.279877,30.238087 191.202682,29.598539 190.893311,28.695852 
	C186.439285,15.699332 177.880188,6.981547 164.604218,3.037160 
	C163.890274,2.825040 163.307343,2.171930 162.831711,1.362052 
	C172.926498,1.000000 182.853012,1.000000 193.000000,1.000000 
	C193.000000,10.686449 193.000000,20.374567 193.000000,30.531342 
z"/>
<path fill="#F6FBFA" opacity="1.000000" stroke="none" 
	d="
M144.204315,79.858742 
	C143.048111,85.019600 144.440872,88.871407 146.892517,93.176224 
	C154.814194,107.085800 147.445160,125.158806 132.249908,131.068909 
	C130.237289,131.851700 128.111206,133.672638 127.132996,135.575775 
	C118.939949,151.515686 99.011208,155.689941 85.046761,144.337189 
	C83.581917,143.146301 81.309555,142.219955 79.476677,142.323074 
	C60.900314,143.368301 47.260086,128.478821 49.957809,110.101379 
	C50.251816,108.098549 49.733002,105.529587 48.638996,103.839622 
	C38.761299,88.581024 45.215744,69.181625 62.327908,62.750557 
	C64.069206,62.096149 65.901436,60.457947 66.732231,58.796589 
	C74.865799,42.531708 95.004128,38.215763 109.064148,49.735062 
	C110.521477,50.929054 112.816513,51.825302 114.655067,51.716286 
	C131.618759,50.710464 143.978958,62.191319 144.204315,79.858742 
M87.930992,72.940491 
	C87.930992,72.940491 87.952682,72.857712 87.411057,72.921265 
	C87.050232,73.279579 86.689407,73.637901 86.063171,74.860252 
	C86.063171,77.557976 86.063171,80.255707 86.063171,84.070259 
	C94.361969,79.311203 101.561729,75.087578 108.869293,71.059502 
	C110.660751,70.072021 112.804565,69.723763 115.185410,69.578308 
	C115.775215,69.819115 116.365021,70.059921 116.916405,70.157608 
	C116.916405,70.157608 116.774033,70.198692 117.170288,70.737968 
	C118.753448,71.559868 120.336609,72.381775 122.206032,73.624191 
	C122.677498,73.794144 123.148972,73.964096 124.039215,74.643921 
	C125.013191,75.128227 125.987167,75.612534 127.256081,76.543007 
	C127.745819,76.730873 128.235565,76.918747 129.138474,77.669136 
	C131.609100,79.055214 134.079727,80.441299 136.550354,81.827385 
	C137.079010,81.488693 137.607651,81.149994 138.136307,80.811295 
	C136.830322,76.792633 135.524323,72.773972 134.195465,68.875092 
	C134.195465,68.875092 134.315872,68.894417 134.151230,68.290749 
	C133.761978,67.827385 133.372742,67.364021 132.796906,66.303833 
	C131.548126,65.195129 130.299332,64.086433 128.713898,62.465004 
	C128.158279,62.215366 127.602654,61.965733 127.086624,61.867172 
	C127.086624,61.867172 127.237061,61.825207 126.851433,61.317631 
	C126.248520,61.124401 125.645607,60.931168 125.087303,60.869030 
	C125.087303,60.869030 125.217590,60.822136 124.653656,60.276825 
	C118.773766,58.064476 113.062317,58.202950 107.821976,61.679455 
	C107.821976,61.679455 107.606087,61.466415 106.954628,61.693638 
	C105.214912,62.763855 103.475204,63.834068 101.202545,64.959320 
	C100.789658,65.275024 100.376770,65.590721 99.310684,66.025993 
	C98.406021,66.640892 97.501350,67.255791 96.094337,67.924530 
	C95.704155,68.216843 95.313972,68.509155 94.253952,68.919937 
	C92.765831,69.890846 91.277718,70.861763 89.917656,71.870682 
	C89.917656,71.870682 89.953384,71.741966 89.343430,71.876350 
	C88.845146,72.223404 88.346855,72.570457 87.930992,72.940491 
M70.092834,119.855194 
	C70.092834,119.855194 70.278770,119.806343 69.869667,119.283424 
	C69.267776,118.999306 68.665878,118.715179 67.611664,117.985420 
	C65.457260,116.971977 63.302853,115.958534 60.863949,114.304565 
	C59.712059,113.636101 58.560165,112.967644 57.408276,112.299179 
	C57.020470,112.544991 56.632660,112.790794 56.244854,113.036606 
	C57.038925,116.418999 57.832996,119.801399 58.754284,123.736458 
	C59.053825,124.196228 59.353367,124.655991 59.809414,125.736046 
	C60.188633,126.195526 60.567852,126.655006 61.230194,127.699539 
	C63.036518,129.172668 64.842842,130.645813 67.083672,132.627548 
	C67.715805,132.838089 68.347946,133.048615 68.924446,133.116409 
	C68.924446,133.116409 68.782478,133.174011 69.352829,133.722610 
	C75.172539,135.524551 80.918266,136.570145 86.054207,132.073288 
	C86.054207,132.073288 86.055954,132.142380 86.519028,132.017426 
	C86.519028,132.017426 86.980202,131.885681 87.687790,131.964233 
	C93.719627,128.508957 100.089027,125.501289 105.595108,121.348869 
	C107.452835,119.947861 108.342010,115.217476 107.487785,112.772423 
	C106.367592,109.566109 103.619865,112.427284 101.819511,113.415031 
	C96.448112,116.362000 91.036789,119.276993 85.914864,122.623543 
	C82.485680,124.864105 79.412849,125.555565 75.550606,122.552094 
	C74.402466,121.976860 73.254326,121.401619 72.118439,120.898895 
	C72.118439,120.898895 72.190536,120.884361 71.794388,120.392670 
	C71.211784,120.151314 70.629173,119.909958 70.092834,119.855194 
M121.076927,97.970314 
	C121.076927,97.970314 121.201813,97.795624 120.812523,97.301315 
	C119.873947,96.862007 118.935379,96.422691 117.836342,95.801025 
	C117.836342,95.801025 117.609756,95.888573 117.048943,95.271744 
	C116.084084,94.854546 115.119225,94.437355 113.818222,93.874809 
	C113.818222,104.292053 113.818222,114.196762 113.351151,124.552299 
	C105.748978,129.421967 98.146805,134.291626 90.448204,139.223053 
	C101.617462,147.575470 115.693962,143.666138 121.414810,130.426361 
	C121.752640,128.597641 122.090462,126.768906 122.663651,124.037529 
	C122.639679,116.041252 122.615707,108.044968 122.760216,99.443230 
	C122.232788,98.889198 121.705368,98.335159 121.076927,97.970314 
M72.916740,96.040062 
	C72.916740,96.040062 72.799385,96.199875 73.187180,96.695595 
	C74.126060,97.134789 75.064941,97.573982 76.162598,98.197800 
	C76.162598,98.197800 76.390289,98.111435 76.952087,98.728912 
	C77.915329,99.149734 78.878563,99.570557 80.610420,100.327171 
	C80.610420,89.420670 80.610420,79.211929 81.096878,68.618584 
	C88.547829,64.160530 95.998787,59.702477 103.537628,55.191841 
	C93.751801,46.126663 78.172195,50.267052 72.555222,63.560421 
	C72.211319,65.391365 71.867416,67.222305 71.301857,69.959824 
	C71.331200,77.958565 71.360542,85.957314 71.229324,94.563072 
	C71.761589,95.114143 72.293854,95.665207 72.916740,96.040062 
M86.107231,90.021164 
	C86.358551,94.780022 86.609871,99.538879 87.317192,104.792130 
	C94.053169,110.873138 100.644272,110.428474 107.860466,104.011322 
	C107.619911,99.241638 107.379356,94.471947 106.682808,89.207870 
	C99.918129,83.098312 93.318069,83.571251 86.107231,90.021164 
M61.323032,71.097466 
	C49.418114,76.984085 47.308472,97.776787 62.201267,106.595642 
	C68.211723,110.154762 74.248436,113.682243 80.420662,116.945183 
	C81.717781,117.630898 83.819336,117.534271 85.270042,117.015175 
	C87.396141,116.254425 89.269600,114.787643 91.894928,113.242577 
	C83.987053,108.663376 76.630478,104.192543 69.063232,100.112442 
	C65.404564,98.139771 63.801964,95.759880 64.023155,91.465370 
	C64.356400,84.995033 63.994633,78.488914 64.051918,71.369652 
	C63.368797,71.249596 62.685677,71.129532 61.323032,71.097466 
M129.948685,122.627464 
	C130.630188,122.738808 131.311676,122.850159 132.668701,122.860359 
	C133.624619,122.200127 134.619919,121.589828 135.530350,120.871902 
	C144.410446,113.869476 145.987091,98.934143 136.964645,92.198372 
	C131.064789,87.793793 124.568077,84.180519 118.734421,79.697838 
	C113.293884,75.517242 108.429405,75.654228 103.387543,79.955360 
	C103.173927,80.137589 103.056313,80.432358 102.624527,81.076920 
	C110.381760,85.568932 118.044868,90.138832 125.847252,94.457077 
	C128.817261,96.100807 130.062622,98.105766 129.953979,101.581718 
	C129.741440,108.380600 130.004456,115.194359 129.948685,122.627464 
z"/>
<path fill="#13A37F" opacity="1.000000" stroke="none" 
	d="
M130.070633,122.001953 
	C130.004456,115.194359 129.741440,108.380600 129.953979,101.581718 
	C130.062622,98.105766 128.817261,96.100807 125.847252,94.457077 
	C118.044868,90.138832 110.381760,85.568932 102.624527,81.076920 
	C103.056313,80.432358 103.173927,80.137589 103.387543,79.955360 
	C108.429405,75.654228 113.293884,75.517242 118.734421,79.697838 
	C124.568077,84.180519 131.064789,87.793793 136.964645,92.198372 
	C145.987091,98.934143 144.410446,113.869476 135.530350,120.871902 
	C134.619919,121.589828 133.624619,122.200127 132.121277,122.735840 
	C131.072784,122.408195 130.571716,122.205078 130.070633,122.001953 
z"/>
<path fill="#13A37F" opacity="1.000000" stroke="none" 
	d="
M63.928303,71.998001 
	C63.994633,78.488914 64.356400,84.995033 64.023155,91.465370 
	C63.801964,95.759880 65.404564,98.139771 69.063232,100.112442 
	C76.630478,104.192543 83.987053,108.663376 91.894928,113.242577 
	C89.269600,114.787643 87.396141,116.254425 85.270042,117.015175 
	C83.819336,117.534271 81.717781,117.630898 80.420662,116.945183 
	C74.248436,113.682243 68.211723,110.154762 62.201267,106.595642 
	C47.308472,97.776787 49.418114,76.984085 61.872177,71.232071 
	C62.923649,71.577118 63.425976,71.787560 63.928303,71.998001 
z"/>
<path fill="#13A480" opacity="1.000000" stroke="none" 
	d="
M76.390289,98.111435 
	C76.390289,98.111435 76.162598,98.197800 75.927490,97.815033 
	C74.728050,97.021461 73.763718,96.610664 72.799385,96.199875 
	C72.799385,96.199875 72.916740,96.040062 72.812675,95.854240 
	C72.269035,95.097626 71.829460,94.526840 71.389877,93.956055 
	C71.360542,85.957314 71.331200,77.958565 71.649872,69.318871 
	C72.319237,66.780441 72.640594,64.882965 72.961952,62.985489 
	C78.172195,50.267052 93.751801,46.126663 103.537628,55.191841 
	C95.998787,59.702477 88.547829,64.160530 80.571259,69.137024 
	C79.694199,71.399902 79.077179,73.138649 79.039589,74.889824 
	C78.911255,80.868057 79.183052,86.861115 78.865570,92.825279 
	C78.769707,94.626144 77.255043,96.351494 76.390289,98.111435 
z"/>
<path fill="#13A480" opacity="1.000000" stroke="none" 
	d="
M122.591736,100.048691 
	C122.615707,108.044968 122.639679,116.041252 122.317093,124.682983 
	C121.653656,127.222313 121.336784,129.116180 121.019913,131.010040 
	C115.693962,143.666138 101.617462,147.575470 90.448204,139.223053 
	C98.146805,134.291626 105.748978,129.421967 113.813293,123.969376 
	C114.521088,116.139412 114.599434,108.880287 115.122200,101.653297 
	C115.264793,99.682053 116.743973,97.807503 117.609756,95.888573 
	C117.609756,95.888573 117.836342,95.801025 118.073761,96.181427 
	C119.274727,96.973091 120.238274,97.384361 121.201813,97.795624 
	C121.201813,97.795624 121.076927,97.970314 121.186508,98.148476 
	C121.727966,98.900658 122.159851,99.474670 122.591736,100.048691 
z"/>
<path fill="#12A37F" opacity="1.000000" stroke="none" 
	d="
M61.148449,114.945099 
	C63.302853,115.958534 65.457260,116.971977 68.059464,118.462143 
	C69.097763,119.228027 69.688263,119.517189 70.278770,119.806343 
	C70.278770,119.806343 70.092834,119.855194 70.294998,119.985748 
	C71.061623,120.372322 71.626083,120.628342 72.190536,120.884361 
	C72.190536,120.884361 72.118439,120.898895 72.186127,121.164688 
	C73.499374,121.963097 74.744934,122.495728 75.990501,123.028358 
	C79.412849,125.555565 82.485680,124.864105 85.914864,122.623543 
	C91.036789,119.276993 96.448112,116.362000 101.819511,113.415031 
	C103.619865,112.427284 106.367592,109.566109 107.487785,112.772423 
	C108.342010,115.217476 107.452835,119.947861 105.595108,121.348869 
	C100.089027,125.501289 93.719627,128.508957 87.208359,131.886627 
	C86.452293,131.800873 86.227966,131.911987 86.055954,132.142380 
	C86.055954,132.142380 86.054207,132.073288 85.661545,132.096176 
	C79.773422,132.470718 74.277946,132.822357 68.782478,133.174011 
	C68.782478,133.174011 68.924446,133.116409 68.698013,132.973053 
	C67.864113,132.592789 67.256645,132.355865 66.649170,132.118942 
	C64.842842,130.645813 63.036518,129.172668 61.001499,127.114838 
	C60.399506,126.058670 60.026207,125.587219 59.652908,125.115761 
	C59.353367,124.655991 59.053825,124.196228 58.892189,123.177551 
	C59.736214,120.060791 60.442333,117.502945 61.148449,114.945099 
z"/>
<path fill="#12A37F" opacity="1.000000" stroke="none" 
	d="
M99.963882,65.906418 
	C100.376770,65.590721 100.789658,65.275024 101.850624,64.922836 
	C104.201164,63.746368 105.903625,62.606392 107.606087,61.466415 
	C107.606087,61.466415 107.821976,61.679455 108.144180,61.662460 
	C114.050125,61.371025 119.633858,61.096581 125.217590,60.822136 
	C125.217590,60.822136 125.087303,60.869030 125.297821,61.015640 
	C126.084587,61.383240 126.660820,61.604221 127.237061,61.825207 
	C127.237061,61.825207 127.086624,61.867172 127.277298,62.010658 
	C127.995506,62.428673 128.523026,62.703201 129.050552,62.977730 
	C130.299332,64.086433 131.548126,65.195129 132.988861,66.891785 
	C133.559174,67.951302 133.937531,68.422859 134.315872,68.894417 
	C134.315872,68.894417 134.195465,68.875092 134.175781,69.235519 
	C134.398788,72.249138 134.641449,74.902336 134.920013,77.948158 
	C132.452896,77.613007 130.589096,77.359810 128.725296,77.106621 
	C128.235565,76.918747 127.745819,76.730873 126.963074,76.002144 
	C125.653526,75.018875 124.636986,74.576462 123.620438,74.134048 
	C123.148972,73.964096 122.677498,73.794144 121.955627,73.073883 
	C120.061501,71.748611 118.417763,70.973656 116.774033,70.198692 
	C116.774033,70.198692 116.916405,70.157608 116.706543,70.004837 
	C115.926582,69.595253 115.356491,69.338440 114.786392,69.081619 
	C112.804565,69.723763 110.660751,70.072021 108.869293,71.059502 
	C101.561729,75.087578 94.361969,79.311203 86.063171,84.070259 
	C86.063171,80.255707 86.063171,77.557976 86.429321,74.333115 
	C87.181213,73.489899 87.566948,73.173805 87.952682,72.857712 
	C87.952682,72.857712 87.930992,72.940491 88.185959,72.849205 
	C88.945068,72.419266 89.449226,72.080612 89.953384,71.741966 
	C89.953384,71.741966 89.917656,71.870682 90.229797,71.857361 
	C92.002556,70.829849 93.463173,69.815659 94.923782,68.801460 
	C95.313972,68.509155 95.704155,68.216843 96.705269,67.885071 
	C98.198761,67.199211 99.081322,66.552818 99.963882,65.906418 
z"/>
<path fill="#10A37E" opacity="1.000000" stroke="none" 
	d="
M107.110359,104.352715 
	C100.644272,110.428474 94.053169,110.873138 87.074409,104.058922 
	C86.840935,98.785019 86.850235,94.244316 86.859543,89.703621 
	C93.318069,83.571251 99.918129,83.098312 106.925591,89.941132 
	C107.149040,95.233841 107.129700,99.793274 107.110359,104.352715 
z"/>
<path fill="#13A37F" opacity="1.000000" stroke="none" 
	d="
M128.931885,77.387878 
	C130.589096,77.359810 132.452896,77.613007 134.920013,77.948158 
	C134.641449,74.902336 134.398788,72.249138 134.187225,69.175629 
	C135.524323,72.773972 136.830322,76.792633 138.136307,80.811295 
	C137.607651,81.149994 137.079010,81.488693 136.550354,81.827385 
	C134.079727,80.441299 131.609100,79.055214 128.931885,77.387878 
z"/>
<path fill="#02956B" opacity="1.000000" stroke="none" 
	d="
M76.671188,98.420174 
	C77.255043,96.351494 78.769707,94.626144 78.865570,92.825279 
	C79.183052,86.861115 78.911255,80.868057 79.039589,74.889824 
	C79.077179,73.138649 79.694199,71.399902 80.328033,69.329330 
	C80.610420,79.211929 80.610420,89.420670 80.610420,100.327171 
	C78.878563,99.570557 77.915329,99.149734 76.671188,98.420174 
z"/>
<path fill="#02956B" opacity="1.000000" stroke="none" 
	d="
M117.329346,95.580154 
	C116.743973,97.807503 115.264793,99.682053 115.122200,101.653297 
	C114.599434,108.880287 114.521088,116.139412 114.046829,123.743958 
	C113.818222,114.196762 113.818222,104.292053 113.818222,93.874809 
	C115.119225,94.437355 116.084084,94.854546 117.329346,95.580154 
z"/>
<path fill="#0EA17C" opacity="1.000000" stroke="none" 
	d="
M124.935623,60.549480 
	C119.633858,61.096581 114.050125,61.371025 108.021797,61.572906 
	C113.062317,58.202950 118.773766,58.064476 124.935623,60.549480 
z"/>
<path fill="#0EA17C" opacity="1.000000" stroke="none" 
	d="
M69.067657,133.448303 
	C74.277946,132.822357 79.773422,132.470718 85.695808,132.100647 
	C80.918266,136.570145 75.172539,135.524551 69.067657,133.448303 
z"/>
<path fill="#2EAA88" opacity="1.000000" stroke="none" 
	d="
M107.485413,104.182022 
	C107.129700,99.793274 107.149040,95.233841 107.153587,90.188332 
	C107.379356,94.471947 107.619911,99.241638 107.485413,104.182022 
z"/>
<path fill="#2EAA88" opacity="1.000000" stroke="none" 
	d="
M86.483383,89.862396 
	C86.850235,94.244316 86.840935,98.785019 86.846413,103.811722 
	C86.609871,99.538879 86.358551,94.780022 86.483383,89.862396 
z"/>
<path fill="#0EA17C" opacity="1.000000" stroke="none" 
	d="
M61.006199,114.624832 
	C60.442333,117.502945 59.736214,120.060791 58.828579,122.901215 
	C57.832996,119.801399 57.038925,116.418999 56.244854,113.036606 
	C56.632660,112.790794 57.020470,112.544991 57.408276,112.299179 
	C58.560165,112.967644 59.712059,113.636101 61.006199,114.624832 
z"/>
<path fill="#2DAB8A" opacity="1.000000" stroke="none" 
	d="
M121.217361,130.718201 
	C121.336784,129.116180 121.653656,127.222313 122.199409,125.134308 
	C122.090462,126.768906 121.752640,128.597641 121.217361,130.718201 
z"/>
<path fill="#0EA17C" opacity="1.000000" stroke="none" 
	d="
M107.280357,61.580025 
	C105.903625,62.606392 104.201164,63.746368 102.117096,64.895309 
	C103.475204,63.834068 105.214912,62.763855 107.280357,61.580025 
z"/>
<path fill="#2BAA89" opacity="1.000000" stroke="none" 
	d="
M72.758591,63.272957 
	C72.640594,64.882965 72.319237,66.780441 71.760696,68.865585 
	C71.867416,67.222305 72.211319,65.391365 72.758591,63.272957 
z"/>
<path fill="#13A37F" opacity="1.000000" stroke="none" 
	d="
M116.972160,70.468330 
	C118.417763,70.973656 120.061501,71.748611 121.812500,72.863632 
	C120.336609,72.381775 118.753448,71.559868 116.972160,70.468330 
z"/>
<path fill="#0EA17C" opacity="1.000000" stroke="none" 
	d="
M94.588867,68.860703 
	C93.463173,69.815659 92.002556,70.829849 90.165771,71.838356 
	C91.277718,70.861763 92.765831,69.890846 94.588867,68.860703 
z"/>
<path fill="#0EA17C" opacity="1.000000" stroke="none" 
	d="
M75.770554,122.790222 
	C74.744934,122.495728 73.499374,121.963097 72.179993,121.128426 
	C73.254326,121.401619 74.402466,121.976860 75.770554,122.790222 
z"/>
<path fill="#13A37F" opacity="1.000000" stroke="none" 
	d="
M123.829826,74.388985 
	C124.636986,74.576462 125.653526,75.018875 126.815613,75.779060 
	C125.987167,75.612534 125.013191,75.128227 123.829826,74.388985 
z"/>
<path fill="#0EA17C" opacity="1.000000" stroke="none" 
	d="
M99.637283,65.966209 
	C99.081322,66.552818 98.198761,67.199211 96.956444,67.858139 
	C97.501350,67.255791 98.406021,66.640892 99.637283,65.966209 
z"/>
<path fill="#2BAA89" opacity="1.000000" stroke="none" 
	d="
M72.993286,96.447739 
	C73.763718,96.610664 74.728050,97.021461 75.848099,97.722717 
	C75.064941,97.573982 74.126060,97.134789 72.993286,96.447739 
z"/>
<path fill="#2DAB8A" opacity="1.000000" stroke="none" 
	d="
M121.007172,97.548470 
	C120.238274,97.384361 119.274727,96.973091 118.153992,96.272598 
	C118.935379,96.422691 119.873947,96.862007 121.007172,97.548470 
z"/>
<path fill="#049A72" opacity="1.000000" stroke="none" 
	d="
M63.990112,71.683823 
	C63.425976,71.787560 62.923649,71.577118 62.211937,71.188080 
	C62.685677,71.129532 63.368797,71.249596 63.990112,71.683823 
z"/>
<path fill="#2DAB8A" opacity="1.000000" stroke="none" 
	d="
M122.675980,99.745956 
	C122.159851,99.474670 121.727966,98.900658 121.237015,98.053879 
	C121.705368,98.335159 122.232788,98.889198 122.675980,99.745956 
z"/>
<path fill="#2BAA89" opacity="1.000000" stroke="none" 
	d="
M71.309601,94.259567 
	C71.829460,94.526840 72.269035,95.097626 72.767365,95.942345 
	C72.293854,95.665207 71.761589,95.114143 71.309601,94.259567 
z"/>
<path fill="#049A72" opacity="1.000000" stroke="none" 
	d="
M130.009659,122.314713 
	C130.571716,122.205078 131.072784,122.408195 131.783524,122.786407 
	C131.311676,122.850159 130.630188,122.738808 130.009659,122.314713 
z"/>
<path fill="#0EA17C" opacity="1.000000" stroke="none" 
	d="
M127.044250,61.571419 
	C126.660820,61.604221 126.084587,61.383240 125.275520,60.950096 
	C125.645607,60.931168 126.248520,61.124401 127.044250,61.571419 
z"/>
<path fill="#0EA17C" opacity="1.000000" stroke="none" 
	d="
M70.074219,119.544884 
	C69.688263,119.517189 69.097763,119.228027 68.285622,118.684967 
	C68.665878,118.715179 69.267776,118.999306 70.074219,119.544884 
z"/>
<path fill="#0EA17C" opacity="1.000000" stroke="none" 
	d="
M71.992462,120.638519 
	C71.626083,120.628342 71.061623,120.372322 70.271866,119.892448 
	C70.629173,119.909958 71.211784,120.151314 71.992462,120.638519 
z"/>
<path fill="#0EA17C" opacity="1.000000" stroke="none" 
	d="
M59.731163,125.425903 
	C60.026207,125.587219 60.399506,126.058670 60.859940,126.822311 
	C60.567852,126.655006 60.188633,126.195526 59.731163,125.425903 
z"/>
<path fill="#0EA17C" opacity="1.000000" stroke="none" 
	d="
M128.882233,62.721367 
	C128.523026,62.703201 127.995506,62.428673 127.257507,61.935120 
	C127.602654,61.965733 128.158279,62.215366 128.882233,62.721367 
z"/>
<path fill="#0EA17C" opacity="1.000000" stroke="none" 
	d="
M66.866425,132.373245 
	C67.256645,132.355865 67.864113,132.592789 68.725830,133.044434 
	C68.347946,133.048615 67.715805,132.838089 66.866425,132.373245 
z"/>
<path fill="#0EA17C" opacity="1.000000" stroke="none" 
	d="
M87.681870,72.889488 
	C87.566948,73.173805 87.181213,73.489899 86.562027,73.901108 
	C86.689407,73.637901 87.050232,73.279579 87.681870,72.889488 
z"/>
<path fill="#0EA17C" opacity="1.000000" stroke="none" 
	d="
M89.648407,71.809158 
	C89.449226,72.080612 88.945068,72.419266 88.144745,72.837723 
	C88.346855,72.570457 88.845146,72.223404 89.648407,71.809158 
z"/>
<path fill="#13A37F" opacity="1.000000" stroke="none" 
	d="
M114.985901,69.329971 
	C115.356491,69.338440 115.926582,69.595253 116.725754,70.076401 
	C116.365021,70.059921 115.775215,69.819115 114.985901,69.329971 
z"/>
<path fill="#13A37F" opacity="1.000000" stroke="none" 
	d="
M134.233551,68.592583 
	C133.937531,68.422859 133.559174,67.951302 133.082169,67.190193 
	C133.372742,67.364021 133.761978,67.827385 134.233551,68.592583 
z"/>
<path fill="#0EA17C" opacity="1.000000" stroke="none" 
	d="
M86.287491,132.079895 
	C86.227966,131.911987 86.452293,131.800873 86.854568,131.847351 
	C86.980202,131.885681 86.519028,132.017426 86.287491,132.079895 
z"/>
</svg>